<svg viewBox="0 0 90 35" xmlns="http://www.w3.org/2000/svg" xmlns:xlink="http://www.w3.org/1999/xlink"><style>:root&gt;svg{display:none}:root&gt;svg:target{display:block}</style><svg fill="none" viewBox="0 0 90 30" id="icon-apple-store" xmlns="http://www.w3.org/2000/svg"><path d="M82.671 0H6.335c-.23.002-.457.006-.69.01a9.993 9.993 0 00-1.504.132c-.496.083-.977.24-1.427.466a4.874 4.874 0 00-1.215.878c-.358.353-.656.76-.884 1.207a4.93 4.93 0 00-.47 1.418c-.083.492-.128.99-.134 1.49-.007.229-.007.458-.011.686V23.5c.004.231.004.455.011.687.006.5.051.998.135 1.49.082.494.24.972.469 1.418.227.446.526.852.884 1.203a4.72 4.72 0 001.215.877c.45.227.93.385 1.427.47.498.081 1 .125 1.505.132.232.005.46.008.69.008l.821.001h75.514l.814-.001c.229 0 .463-.003.692-.008a9.93 9.93 0 001.501-.132 5.129 5.129 0 001.433-.47c.45-.226.859-.522 1.214-.877.357-.352.656-.758.887-1.203.226-.446.383-.924.464-1.418.084-.492.13-.99.14-1.49.003-.232.003-.456.003-.687.005-.27.005-.54.005-.814V7.1c0-.272 0-.543-.005-.813 0-.228 0-.457-.003-.685-.01-.5-.056-.998-.14-1.491a4.906 4.906 0 00-.464-1.418A4.845 4.845 0 0087.11.61a5.155 5.155 0 00-1.433-.467 9.8 9.8 0 00-1.5-.131c-.23-.004-.464-.008-.693-.01L82.671 0z" fill="#A6A6A6"/><path d="M6.339 29.136a30.6 30.6 0 01-.679-.008 9.558 9.558 0 01-1.403-.122 4.414 4.414 0 01-1.243-.408 4.05 4.05 0 01-1.05-.757 3.967 3.967 0 01-.765-1.04 4.266 4.266 0 01-.409-1.234 9.192 9.192 0 01-.125-1.396c-.004-.157-.01-.68-.01-.68V6.288s.006-.515.01-.666c.006-.467.048-.933.125-1.394.071-.43.209-.848.408-1.238.195-.385.453-.737.762-1.04a4.143 4.143 0 011.052-.762c.391-.196.81-.333 1.241-.405A9.516 9.516 0 015.662.66L6.34.65h77.142l.686.01a9.45 9.45 0 011.395.121c.436.074.859.211 1.254.408a4.18 4.18 0 011.813 1.802c.195.387.33.801.402 1.228.077.465.121.934.13 1.405.002.211.002.438.002.663.006.28.006.545.006.813v15.586c0 .27 0 .534-.006.8 0 .242 0 .464-.003.693a9.27 9.27 0 01-.128 1.38c-.07.433-.207.852-.405 1.243-.198.382-.455.73-.763 1.032a4.051 4.051 0 01-1.05.762 4.454 4.454 0 01-1.252.41 9.556 9.556 0 01-1.403.12c-.22.006-.45.009-.674.009l-.814.001-76.332-.001-.001.001z" fill="#000"/><path d="M18.593 15.117a3.68 3.68 0 011.77-3.092 3.814 3.814 0 00-2.997-1.607c-1.26-.13-2.482.749-3.125.749-.654 0-1.643-.736-2.708-.714a3.996 3.996 0 00-3.358 2.031c-1.451 2.494-.369 6.159 1.022 8.174.696.987 1.509 2.09 2.573 2.05 1.041-.042 1.43-.658 2.687-.658 1.245 0 1.61.659 2.695.634 1.118-.018 1.821-.992 2.493-1.988.5-.703.884-1.48 1.14-2.303a3.563 3.563 0 01-2.192-3.276zm-2.05-6.024c.609-.726.91-1.658.836-2.6-.93.097-1.79.539-2.407 1.236a3.437 3.437 0 00-.859 2.503c.943.01 1.839-.41 2.43-1.14v.001zM31.755 20.21h-3.553l-.853 2.499h-1.506l3.366-9.247h1.564l3.365 9.247h-1.53l-.853-2.5v.001zm-3.185-1.154h2.816L29.998 15h-.039l-1.39 4.056h.001zm12.836.282c0 2.095-1.13 3.442-2.836 3.442a2.31 2.31 0 01-2.138-1.18H36.4v3.34h-1.395v-8.973h1.35v1.12h.026a2.416 2.416 0 012.163-1.192c1.725 0 2.862 1.353 2.862 3.442v.001zm-1.434 0c0-1.365-.71-2.262-1.796-2.262-1.065 0-1.782.916-1.782 2.262 0 1.359.717 2.269 1.782 2.269 1.085 0 1.796-.891 1.796-2.269zm8.914 0c0 2.095-1.13 3.442-2.836 3.442a2.31 2.31 0 01-2.138-1.18h-.032v3.34h-1.395v-8.973h1.35v1.12h.025a2.417 2.417 0 012.164-1.192c1.725 0 2.862 1.353 2.862 3.442v.001zm-1.434 0c0-1.365-.71-2.262-1.796-2.262-1.065 0-1.782.916-1.782 2.262 0 1.359.717 2.269 1.782 2.269 1.085 0 1.796-.891 1.796-2.269zm6.378.794c.103.917 1.001 1.52 2.228 1.52 1.176 0 2.022-.603 2.022-1.43 0-.717-.51-1.147-1.718-1.442l-1.208-.288c-1.712-.41-2.506-1.205-2.506-2.493 0-1.596 1.401-2.692 3.391-2.692 1.97 0 3.32 1.096 3.366 2.692h-1.408c-.085-.923-.854-1.48-1.977-1.48-1.124 0-1.893.564-1.893 1.384 0 .654.49 1.038 1.692 1.333l1.027.25c1.913.449 2.708 1.21 2.708 2.563 0 1.73-1.39 2.814-3.599 2.814-2.067 0-3.463-1.058-3.553-2.73h1.428v-.001zm8.734-5.761v1.596h1.293v1.096h-1.294v3.717c0 .577.259.846.827.846.153-.003.307-.013.459-.032v1.09a3.95 3.95 0 01-.775.064c-1.376 0-1.912-.513-1.912-1.82v-3.866h-.989v-1.095h.989v-1.596h1.402zm2.041 4.967c0-2.121 1.26-3.454 3.223-3.454 1.97 0 3.224 1.333 3.224 3.454 0 2.127-1.247 3.455-3.224 3.455-1.976 0-3.223-1.328-3.223-3.455zm5.026 0c0-1.455-.672-2.314-1.803-2.314-1.13 0-1.802.866-1.802 2.314 0 1.461.672 2.314 1.802 2.314s1.803-.853 1.803-2.314zm2.572-3.371h1.33v1.147h.032a1.62 1.62 0 011.635-1.218c.16 0 .32.017.478.052v1.294a1.957 1.957 0 00-.627-.083 1.409 1.409 0 00-1.087.444c-.28.298-.413.702-.367 1.107v3.999h-1.394v-6.742zm9.906 4.762c-.187 1.224-1.389 2.064-2.926 2.064-1.977 0-3.204-1.314-3.204-3.423 0-2.114 1.234-3.486 3.145-3.486 1.88 0 3.063 1.281 3.063 3.326v.474h-4.8v.083c-.045.502.13 1 .48 1.365s.84.564 1.348.545a1.54 1.54 0 001.57-.948h1.324zm-4.715-2.012h3.397a1.61 1.61 0 00-.456-1.217 1.644 1.644 0 00-1.21-.495 1.73 1.73 0 00-1.225.498 1.698 1.698 0 00-.506 1.214zM27.577 8.38h.6a.748.748 0 00.844-.709c0-.41-.31-.674-.839-.674a.802.802 0 00-.904.696h-.656c.022-.386.205-.746.505-.99.3-.248.69-.359 1.077-.31.881 0 1.502.49 1.502 1.195.005.487-.334.91-.813 1.016v.053c.573.025 1.018.505.996 1.074a1.482 1.482 0 01-.557 1.01c-.314.248-.717.36-1.116.311-.4.054-.805-.055-1.122-.303a1.469 1.469 0 01-.56-1.012h.668c.04.426.433.7 1.014.7.58 0 .96-.308.96-.742 0-.44-.357-.712-.98-.712h-.619V8.38zm3.071 1.617c0-.604.453-.952 1.257-1.002l.915-.052v-.29c0-.354-.235-.554-.692-.554-.372 0-.63.136-.704.373h-.646c.068-.576.615-.945 1.382-.945.847 0 1.325.418 1.325 1.127v2.29h-.643v-.47h-.052a1.14 1.14 0 01-1.016.526 1.027 1.027 0 01-.788-.254 1.01 1.01 0 01-.338-.75v.001zm2.172-.287v-.28l-.825.052c-.466.03-.677.188-.677.483 0 .302.264.478.627.478a.798.798 0 00.875-.733zm2.435-1.562v2.797h-.667V7.591h2.226v.557h-1.559zm5.602 1.12c0 1.064-.543 1.732-1.397 1.732a1.103 1.103 0 01-1.04-.563h-.053v1.623H37.7V7.591h.642v.555h.05c.21-.385.62-.62 1.062-.61.86 0 1.403.665 1.403 1.73v.001zm-.686 0c0-.71-.338-1.138-.904-1.138-.56 0-.912.437-.912 1.14 0 .698.35 1.136.91 1.136.568 0 .906-.428.906-1.14v.001zm1.574 2.878v-.57c.072.01.145.013.218.012a.576.576 0 00.611-.468l.05-.163-1.223-3.366h.726l.847 2.664h.053l.845-2.664h.707l-1.26 3.492c-.289.816-.608 1.078-1.297 1.078-.056 0-.215-.006-.277-.015zM45.1 9.993h.664c.065.296.344.45.735.45.444 0 .717-.194.717-.496 0-.323-.245-.477-.717-.477h-.506v-.515h.497c.404 0 .61-.153.61-.434 0-.246-.2-.434-.61-.434-.373 0-.645.157-.689.422h-.643c.1-.633.693-1.07 1.332-.982.804 0 1.263.36 1.263.927a.69.69 0 01-.533.686v.052c.381.05.665.374.661.755 0 .637-.547 1.06-1.382 1.06-.738 0-1.338-.336-1.4-1.014h.001zm3.742.952V7.591h.661v2.307h.053l1.557-2.307h.662v3.354h-.662V8.626h-.049l-1.56 2.32h-.662zm6.575-2.797h-1.064v2.797h-.668V8.148H52.62v-.557h2.797v.557zm3.593 1.891a1.372 1.372 0 01-1.465.97 1.54 1.54 0 01-1.184-.506 1.514 1.514 0 01-.377-1.224c-.06-.445.077-.893.376-1.23.3-.335.73-.526 1.182-.522.94 0 1.51.637 1.51 1.69v.231h-2.389v.037a.88.88 0 00.236.678.894.894 0 00.664.283.813.813 0 00.804-.407h.643zm-2.346-1.08h1.706a.801.801 0 00-.22-.617.819.819 0 00-.61-.252.858.858 0 00-.875.869zm5.175-1.368h1.524c.66 0 1.05.333 1.05.853a.721.721 0 01-.573.708v.053c.41.025.728.365.723.773 0 .585-.443.967-1.185.967h-1.54V7.591h.001zm.66.508v.87h.662c.403 0 .596-.155.596-.439 0-.26-.168-.43-.522-.43H62.5zm0 1.355v.983h.792c.394 0 .605-.173.605-.49 0-.336-.239-.493-.689-.493H62.5z" fill="#fff"/></svg><svg fill="none" viewBox="0 0 30 17" id="icon-arrow" xmlns="http://www.w3.org/2000/svg"><path d="M21.125 1L29 8.5m0 0L21.125 16M29 8.5H1" stroke="#fff" stroke-width="1.8" stroke-linecap="round" stroke-linejoin="round"/></svg><svg fill="none" viewBox="0 0 30 17" id="icon-arrow-2" xmlns="http://www.w3.org/2000/svg"><path d="M21.125 1L29 8.5m0 0L21.125 16M29 8.5H1" stroke="#272727" stroke-width="1.8" stroke-linecap="round" stroke-linejoin="round"/></svg><svg fill="none" viewBox="0 0 17 22" id="icon-basket" xmlns="http://www.w3.org/2000/svg"><path d="M4.5 8H2a1 1 0 00-1 1v11a1 1 0 001 1h13a1 1 0 001-1V9a1 1 0 00-1-1h-2.5m-8 0V5a4 4 0 014-4v0a4 4 0 014 4v3m-8 0h8" stroke="#fff" stroke-width="1.8" stroke-linecap="round" stroke-linejoin="round"/></svg><svg fill="none" viewBox="0 0 35 35" id="icon-facebook" xmlns="http://www.w3.org/2000/svg"><path fill-rule="evenodd" clip-rule="evenodd" d="M17.5 0C7.835 0 0 7.835 0 17.5S7.835 35 17.5 35 35 27.165 35 17.5 27.165 0 17.5 0zm1.824 18.269v9.52h-3.94v-9.52h-1.967v-3.28h1.968v-1.97c0-2.677 1.111-4.269 4.268-4.269h2.629v3.281h-1.643c-1.23 0-1.31.459-1.31 1.315l-.005 1.642H22.3l-.348 3.28h-2.628z" fill="#fff"/></svg><svg fill="none" viewBox="0 0 24 22" id="icon-heart" xmlns="http://www.w3.org/2000/svg"><path d="M12 20C-9.2 8.233 5.64-4.541 12 3.536 18.36-4.54 33.199 8.233 12 20z" stroke="#fff" stroke-width="1.8"/></svg><svg fill="none" viewBox="0 0 35 35" id="icon-instagram" xmlns="http://www.w3.org/2000/svg"><path fill-rule="evenodd" clip-rule="evenodd" d="M17.5 0C7.835 0 0 7.835 0 17.5S7.835 35 17.5 35 35 27.165 35 17.5 27.165 0 17.5 0zm-3.848 8.223c.996-.045 1.314-.056 3.849-.056h-.003c2.535 0 2.852.01 3.848.056.994.045 1.672.203 2.267.434a4.56 4.56 0 011.653 1.076c.52.519.838 1.04 1.077 1.653.23.594.387 1.272.434 2.266.045.995.056 1.313.056 3.848s-.011 2.852-.056 3.848c-.047.993-.204 1.671-.434 2.265a4.582 4.582 0 01-1.077 1.653 4.566 4.566 0 01-1.652 1.078c-.594.23-1.273.388-2.267.433-.995.045-1.312.056-3.847.056s-2.853-.01-3.848-.056c-.994-.045-1.672-.203-2.266-.434a4.57 4.57 0 01-1.653-1.077 4.573 4.573 0 01-1.076-1.653c-.231-.594-.388-1.272-.434-2.265-.045-.996-.056-1.313-.056-3.848s.011-2.853.056-3.849c.045-.993.202-1.671.433-2.265a4.582 4.582 0 011.078-1.653 4.57 4.57 0 011.653-1.076c.593-.231 1.272-.389 2.265-.434z" fill="#fff"/><path fill-rule="evenodd" clip-rule="evenodd" d="M16.664 9.849h.837c2.492 0 2.787.008 3.771.053.91.042 1.404.194 1.733.322.436.169.746.371 1.073.698.327.326.529.637.698 1.073.128.329.28.823.322 1.732.044.984.054 1.28.054 3.77 0 2.492-.01 2.787-.054 3.771-.042.91-.194 1.404-.322 1.733a2.887 2.887 0 01-.698 1.072 2.886 2.886 0 01-1.073.698c-.328.128-.823.28-1.733.322-.983.044-1.279.054-3.771.054s-2.788-.01-3.772-.054c-.91-.043-1.403-.195-1.733-.322a2.89 2.89 0 01-1.073-.698A2.893 2.893 0 0110.225 23c-.128-.329-.28-.823-.322-1.733-.045-.983-.054-1.28-.054-3.771 0-2.493.01-2.787.054-3.77.042-.91.194-1.405.322-1.734a2.89 2.89 0 01.698-1.073 2.897 2.897 0 011.073-.699c.33-.128.823-.28 1.733-.321.862-.04 1.195-.05 2.935-.053v.003zm5.819 1.55a1.12 1.12 0 100 2.24 1.12 1.12 0 000-2.241zM12.708 17.5a4.793 4.793 0 119.585 0 4.793 4.793 0 01-9.585 0z" fill="#fff"/><path fill-rule="evenodd" clip-rule="evenodd" d="M17.501 14.389a3.111 3.111 0 110 6.222 3.111 3.111 0 010-6.222z" fill="#fff"/></svg><svg fill="none" viewBox="0 0 15 22" id="icon-user" xmlns="http://www.w3.org/2000/svg"><path d="M11.833 5.444c0 2.455-1.94 4.445-4.333 4.445-2.393 0-4.333-1.99-4.333-4.445C3.167 2.99 5.107 1 7.5 1c2.393 0 4.333 1.99 4.333 4.444zM1 15.444C1 12.376 3.425 9.89 6.417 9.89h2.166c2.992 0 5.417 2.487 5.417 5.555v4.445c0 .614-.485 1.111-1.083 1.111H2.083A1.099 1.099 0 011 19.889v-4.445z" stroke="#fff" stroke-width="1.8"/></svg></svg>